<svg width="11" height="20" viewBox="0 0 11 20" fill="none" xmlns="http://www.w3.org/2000/svg">
<path d="M4.875 19C4.875 19.3452 5.15482 19.625 5.5 19.625C5.84518 19.625 6.125 19.3452 6.125 19H4.875ZM5.94194 1.05806C5.69786 0.813981 5.30214 0.813981 5.05806 1.05806L1.08058 5.03553C0.836505 5.27961 0.836505 5.67534 1.08058 5.91942C1.32466 6.1635 1.72039 6.1635 1.96447 5.91942L5.5 2.38388L9.03553 5.91942C9.27961 6.1635 9.67534 6.1635 9.91942 5.91942C10.1635 5.67534 10.1635 5.27961 9.91942 5.03553L5.94194 1.05806ZM6.125 19V1.5H4.875V19H6.125Z" fill="#121212"/>
</svg>
