<svg width="123" height="59" viewBox="0 0 123 59" fill="none" xmlns="http://www.w3.org/2000/svg">
<path fill-rule="evenodd" clip-rule="evenodd" d="M87.366 36.2812C109.186 34.5814 118.378 24.5303 120.242 19.3656C126.756 1.32717 100.501 -11.8832 87.6762 22.1814C85.9909 27.0473 85.0121 31.3569 84.6295 35.1548C80.8142 35.227 76.8695 35.0011 72.2029 34.4517L86.165 1L82.6631 1L68.8711 34.0784C67.8648 33.9333 66.8384 33.7725 65.7943 33.5958C62.5477 33.0464 53.3628 31.3775 47.7898 31.223C44.161 31.1241 40.8144 31.137 37.8142 31.5477L25.0832 1.0454L21.5813 1.0454L34.4915 31.9771C8.81113 36.604 1 58.2995 1 58.2995H2.19938C2.19938 58.2995 11.0367 37.3046 35.1695 33.6014L45.5442 58.4582H49.0461L38.5392 33.2847C41.3795 32.959 44.8329 32.8331 48.0276 32.9915C54.8793 33.3314 64.7156 35.3712 67.3659 35.7043C67.6298 35.7373 67.8923 35.7689 68.1535 35.7995L60.3771 54.4501L53.1303 36.7415H49.6284L58.7057 58.4589H62.1828L71.4721 36.2026C76.2593 36.6353 80.5282 36.6555 84.5261 36.4666C83.2026 49.3349 92.939 58.3831 104.661 58.177C116.293 57.9195 122 53.8698 122 53.8698C96.1504 63.5268 86.1055 48.5976 87.366 36.2812ZM118.354 19.5442C124.12 5.23851 104.211 -8.07794 92.0981 18.4762C89.4891 23.943 88.0863 29.4923 87.5349 34.7359C110.485 33.5718 116.713 23.614 118.354 19.5442Z" fill="#121212"/>
<path d="M37.7536 31.5561C37.7738 31.5533 37.794 31.5505 37.8142 31.5477M34.6379 31.951C34.5891 31.9596 34.5403 31.9684 34.4915 31.9771M35.3651 33.5718C35.2998 33.5815 35.2346 33.5914 35.1695 33.6014M34.4985 31.9938L34.4915 31.9771M35.1571 33.5718L35.1695 33.6014M37.8339 31.5949L37.8142 31.5477M37.8142 31.5477C40.8144 31.137 44.161 31.1241 47.7898 31.223C53.3628 31.3775 62.5477 33.0464 65.7943 33.5958C66.8384 33.7725 67.8648 33.9333 68.8711 34.0784L82.6631 1L86.165 1L72.2029 34.4517C76.8695 35.0011 80.8142 35.227 84.6295 35.1548C85.0121 31.3569 85.9909 27.0473 87.6762 22.1814C100.501 -11.8832 126.756 1.32717 120.242 19.3656C118.378 24.5303 109.186 34.5814 87.366 36.2812C86.1055 48.5976 96.1504 63.5268 122 53.8698C122 53.8698 116.293 57.9195 104.661 58.177C92.939 58.3831 83.2026 49.3349 84.5261 36.4666C80.5282 36.6555 76.2593 36.6353 71.4721 36.2026L62.1828 58.4589H58.7057L49.6284 36.7415H53.1303L60.3771 54.4501L68.1535 35.7995C67.8923 35.7689 67.6298 35.7373 67.3659 35.7043C64.7156 35.3712 54.8793 33.3314 48.0276 32.9915C44.8329 32.8331 41.3795 32.959 38.5392 33.2847L49.0461 58.4582H45.5442L35.1695 33.6014M37.8142 31.5477L25.0832 1.0454L21.5813 1.0454L34.4915 31.9771M34.4915 31.9771C8.81113 36.604 1 58.2995 1 58.2995H2.19938C2.19938 58.2995 11.0367 37.3046 35.1695 33.6014M92.0981 18.4762C104.211 -8.07794 124.12 5.23851 118.354 19.5442C116.713 23.614 110.485 33.5718 87.5349 34.7359C88.0863 29.4923 89.4891 23.943 92.0981 18.4762Z" stroke="#121212" stroke-width="0.276466" stroke-miterlimit="10"/>
</svg>
